<?xml version="1.0" encoding="utf-8"?>
<!-- Generator: Adobe Illustrator 21.0.0, SVG Export Plug-In . SVG Version: 6.00 Build 0)  -->
<svg version="1.1" id="Layer_1" xmlns="http://www.w3.org/2000/svg" xmlns:xlink="http://www.w3.org/1999/xlink" x="0px" y="0px"
	 viewBox="0 0 337.8 360" style="enable-background:new 0 0 337.8 360;" xml:space="preserve">
<style type="text/css">
	.st0{fill:#78B6E4;}
</style>
<title>favicon</title>
<path class="st0" d="M124.8,5.5c-3.6,2.9-4.3,8.8-6.2,13.3c1.1,1.7,2.3,3.3,3.7,4.8c2.1,0.8,4.3,0.2,6.5,0.6
	c8.2,1.2,15.4,5.1,21.8,8.5c3,1.6,5.6,2.8,7.4,5.4c-0.1,3.3-0.7,7.1,0.6,9.7c8.6,2.1,15.4,4.1,24.4,5.7c2.7,1.5,7.2,2.2,9.9,2.8
	c0.8-0.1,1,0.5,1.4,0.8c1.9,0.4,3,0.1,4.8,0.9c0.2,0.1,0.7,0.5,1.4,0.8c1.9,0.9,5.3,1.8,7.1,2.6c0.7,0.3,1.4,1,2,1.1
	s1.2-0.5,1.7-0.3c0.3,0.4,0.6,0.7,0.9,1.2c1.1,0.5,2.6,0.3,3.7,0.8c0.5,0.2,1.1,0.8,1.7,1.1c2.4,1.2,4.8,2.6,7.4,4
	c1.2,0.6,2.3,1.1,3.7,2c1.9,1.1,4.8,2.2,7.1,3.7c8.5,1.6,16,4.2,24.1,6.2c1,0.1,1.9,0,2.9-0.3c1.4,1,3.4,1.3,5.9,1.1
	c3.2,2.3,3.9,7.1,6,10.5c4.2,0.4,6.3,3,11,2.8c1.5,1.4,2.8,2.9,4,4.5c1.5,7-0.2,13,0.3,19.6c-1,2.9-3.1,4.7-4.5,7.1
	c3.9-2.1,8-4.3,13-1.7c-0.7,4.7-1.5,8.5-4.2,11.6c-0.1,2.2,0,4.4,0.6,6.5c2.3,1.4,4.5,2.9,6.5,4.5c-0.5,3.1-1.7,5.5-1.7,9.1
	c-1.6,2.1-3.5,3.9-4.8,6.2c-4.4,1.8-8.9,3.4-11.4,7.1c0.9,3.4-0.3,6.5-1.1,9.1c-1.2,0.4-1.6,1.4-3.4,1.1c-1.2,3.2-4.2,9.3-2.5,13.6
	c0.5,1.1,2.6,3.1,4,3.1c4.1,0,4-6.9,9.6-6.2c3.4-5.9,5.1-13.4,9.9-17.9c5.7,1.8,6.1-6,11.6-2.6c1.8-1.7-0.6-3.7-0.6-5.4
	c5.7-6,7.4-15.8,13-21.8c8.2,0,5.4-12.3,13.9-11.1c-1,4.1-3.7,7.3-2.6,13.3c-1.4,5.3-7.9,6.1-10.2,10.8c-2.2,4.4-0.2,11.4-3.4,16.2
	c-1.1,0.8-2.2,1.4-3.4,2c-1.1,3.9-2.6,6.9-2.5,10.8c-5,8.4-11.9,19.3-9.4,31.5c-0.8,6.1-3.8,10-5.7,15c-3.9,2.5-5.2,6.7-4.8,11.3
	c0.2,1.8,1.4,3.3,1.7,5.1c0.3,1.4,0,3.2,0.3,4.8c0.7,4.7,0.5,4.9-1.7,9.1c-0.5,0.9-0.6,1.7-1.1,2.5c-0.4,0.7-1.4,1.4-1.7,2
	s0,1.3-0.3,1.7c-0.5,0.7-1.5,1-2,1.7c-1.7,2.7-0.7,6-1.1,9.9c-0.5,4.6-3.2,8.5-5.7,11.6c-0.2,12.8-0.1,23.8,2,35.2
	c1.9,3.7,4.1,7.2,4,11.6c-0.1,2-1.2,3.8-2,6c-1,3-2.7,6.6-2,11.3c0.2,1.6,1.3,2,0.9,4c-54.1,1.3-110.7,0.2-165.9,0.6
	c-0.4-5.5-3.5-10.6-6.5-14.5c-5.3-0.8-8.9-1.6-12.8-3.7c-4.3-4.8-4.2-12.5-9.1-17c1.5-4.5,0.2-9.2,0.8-13.9
	c0.7-4.4,2.9-8.8,3.7-12.5c-0.4-3.9-0.1-6.9-0.8-10.5c-2.2-3.7-4.9-7-7.1-10.8c1.5-5.8,0.4-13.8,0.8-19.6c-1.7-2.2-1.6-7.3-2.8-10.5
	c-1.3-3.4-5.6-6.2-8.8-8.5C75,236,71.3,234,68.1,232c-7.6-4.7-11.9-11.3-17.6-16.4c-0.6-1.8-1.8-2.9-2.3-4.8
	c-3.4-4.9-9.6-8.9-15.3-12.5c-4-2.4-8.1-4.4-12.5-6c-2.4-2.3-4.9-4.4-7.7-6.2c-3.6-4.8-7.2-8.8-10.2-13.6c1.1-3,2.3-5.8,3.7-9.1
	c1.1-6.4,0.8-12.8,3.7-17.6c-1.1-3.7-1.9-8.4-1.1-12.8c0.6-3.2,4.4-7.4,6-9.9c-0.4-1.4-0.2-2.8,0.6-4c-0.1-2-1.4-3-1.1-5.4
	c-2-1.9-3.4-4.7-6.2-5.7c-2.6-0.9-6.1-0.4-7.9-3.1c0.2-4.8-1.1-11.1,2.5-12.5c1.4,0,3-0.2,4,0.3c1.2-0.7,1.8-2,3.4-2.3
	c1-3.1,1.6-6.7,2.6-9.9c5.6-3.9,11.7-7.4,17.3-11.3c2.2,0.9,4-0.9,6-1.1c-0.7-2.8,0.6-4.9,0.8-7.7c0.3-2.5-0.4-5.4,0-7.7
	c0.1-0.7,0.8-1.5,0.8-2.3c0.3-2.3-0.2-4.7,0-7.1c0.2-1.9,1-3.8,1.1-5.7c0.3-4.8-0.5-10,0.6-14.2c0.6-2.7,4.6-4.8,6.7-7
	c1.2-1.3,1.7-2.8,3.1-3.7c4-0.4,6.5,4.6,10.8,5.1c6.8,0.8,12.2-1.3,18.4-1.1c0.9-0.8,1.2-2.2,2-3.1c2.9-0.9,5.6-2.2,8.2-3.7
	c3.5-2,5.8-3.8,10.2-5.4c0.8-0.4,1.7-0.8,2.6-1.2c1.9-0.3,4.1,0.7,6.2,0.3c1.4-0.3,2.5-2,4.2-2.6c1.9-0.6,6-1.5,7.9-1.1
	c0.7,0.1,0.1,0.5,0.9,0.9s1.3-0.1,1.7,0.3C123.4,2.2,123.6,4,124.8,5.5z"/>
</svg>
