<svg xmlns="http://www.w3.org/2000/svg" xmlns:xlink="http://www.w3.org/1999/xlink" viewBox="0 0 300 300">
  <defs>
    <style>
      .a {
        fill: none;
      }

      .b {
        clip-path: url(#a);
      }

      .c {
        fill: #d3e4f5;
      }

      .d {
        fill: #78b6e3;
      }
    </style>
    <clipPath id="a">
      <rect class="a" x="3.4" y="5.74" width="292.55" height="287.88" transform="translate(-18.97 277.6) rotate(-82.18)"/>
    </clipPath>
  </defs>
  <title>Artboard 1</title>
  <g class="b">
    <path class="c" d="M147.86,295.75a140.89,140.89,0,0,1-49-8.81c-74.35-27.53-112-111.51-84-187.19S126.14-15.11,200.5,12.42s112,111.5,84,187.19C262.58,258.87,206.75,295.75,147.86,295.75Zm3.55-226.84c-32.33,0-63.14,20.57-75.34,53.51-15.52,41.92,4.87,88.25,45.46,103.28s86.23-6.85,101.76-48.77-4.88-88.25-45.46-103.28A75.91,75.91,0,0,0,151.41,68.92Z"/>
    <path class="d" d="M99.16,287.47a141.57,141.57,0,0,1-80.62-75.85A148.27,148.27,0,0,1,86.24,20L116,78.1A83,83,0,0,0,78.18,185a76.76,76.76,0,0,0,43.65,41.2Z"/>
  </g>
</svg>
