<svg xmlns="http://www.w3.org/2000/svg" xmlns:xlink="http://www.w3.org/1999/xlink" viewBox="0 0 300 300">
  <defs>
    <style>
      .a {
        fill: none;
      }

      .b {
        clip-path: url(#a);
      }

      .c {
        fill: #c6dcf2;
      }

      .d {
        fill: #9fc8ea;
      }

      .e {
        fill: #78b6e3;
      }
    </style>
    <clipPath id="a">
      <rect class="a" x="7.63" y="5.11" width="284" height="289.09"/>
    </clipPath>
  </defs>
  <title>Artboard 1</title>
  <g class="b">
    <path class="c" d="M149.64,294.2c-78.3,0-142-64.85-142-144.55S71.34,5.11,149.64,5.11s142,64.84,142,144.54S227.94,294.2,149.64,294.2Zm0-224.6c-42.74,0-77.51,35.91-77.51,80.05s34.77,80.06,77.51,80.06,77.51-35.91,77.51-80.06S192.38,69.6,149.64,69.6Z"/>
    <path class="d" d="M149.64,294.2c-78.3,0-142-64.84-142-144.54S71.34,5.11,149.64,5.11V69.6c-42.74,0-77.51,35.91-77.51,80.06s34.77,80.05,77.51,80.05Z"/>
    <path class="e" d="M149.64,294.2c-78.3,0-142-64.84-142-144.55a146.39,146.39,0,0,1,44.45-105L96.81,91.07a80.5,80.5,0,0,0-24.68,58.58c0,44.14,34.77,80.06,77.51,80.06Z"/>
  </g>
</svg>
