<svg xmlns="http://www.w3.org/2000/svg" viewBox="0 0 300 300"><defs><style>.a{fill:none}.b{clip-path:url(#a)}.c{fill:#d3e4f5}.d{fill:#78b6e3}</style><clipPath id="a"><path class="a" transform="rotate(-27 149.664 149.678)" d="M3.4 5.74h292.55v287.88H3.4z"/></clipPath></defs><title>Artboard 1</title><g class="b"><path class="c" d="M270.64 67.77A140.89 140.89 0 0 1 291.39 113c19.85 76.76-27.58 155.65-105.71 175.86S27.82 263.09 8 186.32 35.54 30.67 113.68 10.46C174.86-5.35 237 19.42 270.64 67.77zM82.38 194.37c18.46 26.55 52.93 40.1 86.95 31.3 43.27-11.19 69.67-54.39 58.84-96.29S173.31 62.5 130 73.69 60.36 128.07 71.19 170a75.91 75.91 0 0 0 11.19 24.37z"/><path class="d" d="M291.64 112.49A141.57 141.57 0 0 1 275.4 222a148.27 148.27 0 0 1-196 53.84l30.76-57.6a83 83 0 0 0 109.36-30 76.76 76.76 0 0 0 8.9-59.36z"/></g></svg>