<svg xmlns="http://www.w3.org/2000/svg" viewBox="0 0 300 300"><defs><style>.a{fill:none}.b{clip-path:url(#a)}.c{fill:#c6dcf2}.d{fill:#9fc8ea}.e{fill:#78b6e3}</style><clipPath id="a"><path class="a" d="M7.63 5.11h284V294.2h-284z"/></clipPath></defs><title>Artboard 1</title><g class="b"><path class="c" d="M149.64 294.2c-78.3 0-142-64.85-142-144.55s63.7-144.54 142-144.54 142 64.84 142 144.54-63.7 144.55-142 144.55zm0-224.6c-42.74 0-77.51 35.91-77.51 80.05s34.77 80.06 77.51 80.06 77.51-35.91 77.51-80.06-34.77-80.05-77.51-80.05z"/><path class="d" d="M149.64 294.2c-78.3 0-142-64.84-142-144.54s63.7-144.55 142-144.55V69.6c-42.74 0-77.51 35.91-77.51 80.06s34.77 80.05 77.51 80.05z"/><path class="e" d="M149.64 294.2c-78.3 0-142-64.84-142-144.55a146.39 146.39 0 0 1 44.45-105l44.72 46.42a80.5 80.5 0 0 0-24.68 58.58c0 44.14 34.77 80.06 77.51 80.06z"/></g></svg>