<svg xmlns="http://www.w3.org/2000/svg" viewBox="0 0 300 300"><defs><style>.a{fill:none}.b{clip-path:url(#a)}.c{fill:#d3e4f5}.d{fill:#78b6e3}</style><clipPath id="a"><path class="a" transform="rotate(-82.18 149.68 149.677)" d="M3.4 5.74h292.55v287.88H3.4z"/></clipPath></defs><title>Artboard 1</title><g class="b"><path class="c" d="M147.86 295.75a140.89 140.89 0 0 1-49-8.81c-74.35-27.53-112-111.51-84-187.19S126.14-15.11 200.5 12.42s112 111.5 84 187.19c-21.92 59.26-77.75 96.14-136.64 96.14zm3.55-226.84c-32.33 0-63.14 20.57-75.34 53.51-15.52 41.92 4.87 88.25 45.46 103.28s86.23-6.85 101.76-48.77-4.88-88.25-45.46-103.28a75.91 75.91 0 0 0-26.42-4.73z"/><path class="d" d="M99.16 287.47a141.57 141.57 0 0 1-80.62-75.85A148.27 148.27 0 0 1 86.24 20L116 78.1A83 83 0 0 0 78.18 185a76.76 76.76 0 0 0 43.65 41.2z"/></g></svg>