<svg xmlns="http://www.w3.org/2000/svg" viewBox="0 0 190.5 190.5">
  <defs>
    <style>
      .a {
        fill: #e6e6e6;
      }
    </style>
  </defs>
  <title>Artboard 1</title>
  <g>
    <path class="a" d="M95.25,0A95.25,95.25,0,1,0,190.5,95.25,95.36,95.36,0,0,0,95.25,0Zm7,174.17V155.71a7,7,0,0,0-14,0v18.47A79,79,0,0,1,39.8,151.8l5.73-5.73a4,4,0,1,0-5.66-5.66l-5.51,5.51a78.89,78.89,0,0,1-18-43.67H35a7,7,0,0,0,0-14H16.33A79,79,0,0,1,40.21,38.31l5.61,5.61a4,4,0,0,0,5.66-5.66L46.25,33a78.83,78.83,0,0,1,42-16.71V33.24a7,7,0,1,0,14,0V16.33a79,79,0,0,1,49.28,23.19l-6.25,6.25a4,4,0,1,0,5.66,5.66l5.93-5.93a78.86,78.86,0,0,1,17.31,42.76H157.26a7,7,0,0,0,0,14h16.91a78.89,78.89,0,0,1-17.9,43.5l-5.34-5.34a4,4,0,1,0-5.66,5.66l5.58,5.58A79,79,0,0,1,102.25,174.17Z"/>
    <path class="a" d="M112.84,98.51l-7.72-5.83,13.36-30.44a8,8,0,0,0-14.65-6.43l-18.45,42,17.81,13.46a8,8,0,0,0,9.64-12.77Z"/>
  </g>
</svg>
