<svg xmlns="http://www.w3.org/2000/svg" viewBox="0 0 288.47 296.65">
  <defs>
    <style>
      .a {
        fill: #e6e7e8;
        fill-rule: evenodd;
      }
    </style>
  </defs>
  <title>Artboard 1</title>
  <path class="a" d="M2.1,267.08,94,175.14a7.22,7.22,0,0,1,10.18,0l3.5,3.5,25.15-25.15L211.35,232l57.31-57.31-11.33-11.33a35.84,35.84,0,0,1-46-3.82L112.77,60.92a35.82,35.82,0,0,1,0-50.51h0a35.82,35.82,0,0,1,50.51,0L261.86,109a35.85,35.85,0,0,1,5.06,44.11l21.55,21.55-77.11,77.11-78.48-78.48-15.25,15.25,3.89,3.89a7.22,7.22,0,0,1,0,10.18L29.57,294.55a7.22,7.22,0,0,1-10.18,0L2.1,277.26A7.22,7.22,0,0,1,2.1,267.08Z"/>
</svg>
