<svg xmlns="http://www.w3.org/2000/svg" viewBox="0 0 428.96 471.56"><defs><style>.a,.d{fill:#fff}.b{fill:#78b6e3}.c{fill:#231f20}.d{fill-rule:evenodd}</style></defs><title>Artboard 1</title><path class="a" d="M214.49 214.92l102.25 231.55a253.6 253.6 0 0 1-204.44 0z"/><path class="b" d="M214.48 471.5a254.73 254.73 0 0 1-103.6-21.8l-3.2-1.41 106.81-242 106.87 242-3.2 1.42a254.74 254.74 0 0 1-103.68 21.79zm-97.56-26.81a250.17 250.17 0 0 0 195.2 0l-97.63-221.1z"/><path class="a" d="M214.48 425.76C98 425.76 3.21 331 3.21 214.48S98 3.21 214.48 3.21 425.76 98 425.76 214.48 331 425.76 214.48 425.76z"/><path class="b" d="M214.48 6.41c114.91 0 208.07 93.16 208.07 208.07s-93.17 208.07-208.07 208.07S6.41 329.4 6.41 214.48 99.58 6.41 214.48 6.41m0-6.41C96.21 0 0 96.22 0 214.48S96.21 429 214.48 429 429 332.75 429 214.48 332.74 0 214.48 0z"/><path class="b" d="M364.91 214.63A150.58 150.58 0 1 1 214.33 64.06a150.59 150.59 0 0 1 150.58 150.57z"/><path class="c" d="M32.53 155.77l2.38-5.43 17.69 2.08-13.39-12 1.91-4.42 17.93 1.71-13.5-11.62 2.33-5.3 19.74 18-1.94 4.41-17.35-1.42 12.78 11.82-1.94 4.41zM53.25 113.64l3-4.64 21.1 13.69-3 4.64zM76.87 116.47l-1-5a11.54 11.54 0 0 0 7.1-3.91c1.43-1.76 1.59-3.38.44-4.31h-.06c-1.09-.88-2.19-.66-5.67 1.92-4.2 3.12-7.34 4.78-11.22 1.63h-.06c-3.55-2.87-3.58-7.62-.35-11.61a14.56 14.56 0 0 1 8.37-5.25l1.43 4.86a11.8 11.8 0 0 0-6 3.52c-1.33 1.65-1.28 3.12-.33 3.89h.06c1.28 1 2.38.54 6-2.13 4.25-3.13 7.48-4.21 10.89-1.45h.06c3.88 3.14 3.66 7.87.24 12.08a16 16 0 0 1-9.9 5.76zM86.55 91v-.05a12.78 12.78 0 0 1 .95-18.45 13 13 0 0 1 9.95-3.8l.13 5.37a9.28 9.28 0 0 0-6.67 2.23c-3.14 2.85-3 7.51-.12 10.7v.05c2.9 3.19 7.53 3.84 10.72.94 2.13-1.93 2.65-4 2.91-6.63l5 .26a12.86 12.86 0 0 1-4.61 10.26A12.7 12.7 0 0 1 86.55 91zM107.84 72.09v-.06a13 13 0 0 1 4.32-18.17c6.55-4.17 14.35-2.28 18.2 3.75v.06A13 13 0 0 1 126 75.84c-6.51 4.16-14.32 2.28-18.16-3.75zm17.67-11.25v-.06a7.64 7.64 0 0 0-10.71-2.58 7.52 7.52 0 0 0-2.16 10.66v.06a7.64 7.64 0 0 0 10.67 2.58 7.52 7.52 0 0 0 2.2-10.67zM132.72 42.58l4.73-1.91 16.74 9.94-5.81-14.36 5.06-2 9.43 23.32-4.36 1.77L141.22 49l6 14.83-5.06 2zM166.63 52.59l2.31-4.59a11.54 11.54 0 0 0 8 1.3c2.21-.51 3.34-1.69 3-3.12v-.07c-.31-1.37-1.31-1.87-5.65-2-5.23-.13-8.73-.77-9.84-5.63v-.07c-1-4.45 1.88-8.21 6.89-9.36a14.56 14.56 0 0 1 9.82 1l-1.87 4.7a11.8 11.8 0 0 0-6.93-1c-2.07.47-2.94 1.67-2.66 2.86v.07c.37 1.61 1.54 1.9 6 2 5.27.16 8.48 1.3 9.46 5.57v.07c1.12 4.87-2 8.45-7.26 9.66a16 16 0 0 1-11.27-1.39zM188.91 26.24l5.49-.66 3 25-5.5.66zM204.08 24.45l5.1.06 11.62 15.62.2-15.49 5.46.06-.28 25.16-4.71-.05-12-16.13-.18 16-5.46-.06zM248.5 27.43l10 2.31c5.85 1.35 8.58 5.64 7.42 10.64v.07c-1.31 5.67-6.4 7.59-11.9 6.32l-4.1-.95-1.7 7.35-5.39-1.25zM255.31 42c2.7.62 4.64-.62 5.13-2.72v-.07c.56-2.42-.82-4.1-3.52-4.72l-4.17-1L251 41zM281.33 36.53l4.75 1.86.8 27.52-5.39-2.11-.08-6.09-9.9-3.88-4.2 4.41-5.25-2.06zm0 15.91l-.14-8.81-6.06 6.37zM302.48 46.19l4.86 2.64-12 22.11-4.86-2.64zM315.68 53.44l4.15 3 .58 19.45 9-12.6 4.44 3.18-14.61 20.43-3.83-2.74-.61-20.09-9.3 13-4.44-3.18zM342.31 81.06l-5.45-5.38 3.58-3.63 14.84 14.64-3.58 3.63-5.45-5.38-14.08 14.28-3.94-3.89zM359.79 92.25l3.5 4.28-19.47 15.93-3.5-4.28zM369.26 103.94l2.72 4.32-6.81 18.23 13.1-8.26 2.91 4.62-21.27 13.42-2.51-4 7-18.83-13.49 8.56-2.91-4.64zM374.09 136.39h.07a12.91 12.91 0 0 1 17 7.29 13.82 13.82 0 0 1 .54 10.45l-5.21-1.64a9.27 9.27 0 0 0-.12-7.05c-1.52-3.73-6-5.34-10-3.73h-.07c-4.26 1.74-6.19 5.94-4.51 10.07a8.83 8.83 0 0 0 3.41 4.22l3.33-1.36-2.11-5.16 4.43-1.81 4.15 10.16-10.14 4.17a16.33 16.33 0 0 1-7.75-8.44c-2.96-7.29.09-14.36 6.98-17.17z"/><g><path class="c" d="M34.78 203h.07a12.79 12.79 0 0 1 12.92 13.2 13 13 0 0 1-3.94 9.89l-4-3.55a9.29 9.29 0 0 0 2.88-6.42c0-4.24-3.48-7.32-7.79-7.35h-.07c-4.31 0-7.93 2.93-8 7.24 0 2.88 1.12 4.64 2.9 6.63l-3.58 3.5a12.86 12.86 0 0 1-4.43-10.34A12.7 12.7 0 0 1 34.78 203zM35 231.6h.07a13 13 0 0 1 15.06 11c1.29 7.65-3.48 14.11-10.53 15.3h-.07a13 13 0 0 1-15.06-11c-1.3-7.65 3.48-14.11 10.53-15.3zm3.49 20.66h.07a7.64 7.64 0 0 0 6.53-8.83 7.52 7.52 0 0 0-9-6.13H36a7.64 7.64 0 0 0-6.53 8.83 7.52 7.52 0 0 0 9.02 6.13zM53.61 261.41l1.75 4.79-10.51 16.38 14.55-5.31 1.87 5.13-23.63 8.6-1.64-4.39 10.85-16.93-15 5.48L30 270zM62.32 295.41l-3.71-6.7 4.46-2.47 10.09 18.23-4.46 2.47-3.7-6.69L47.46 310l-2.68-4.84zM75.34 307.73l7 9.15c1.94 2.54 2.72 5.06 2.41 7.38a7.89 7.89 0 0 1-3.27 5.2h-.06a7.81 7.81 0 0 1-9.47.43l-3.45 10.37-3.92-5.15 3.14-9.11-2.63-3.46-6.4 4.88-3.36-4.42zm-3 16.26c1.63 2.14 3.71 2.5 5.4 1.22h.06c1.89-1.44 1.86-3.49.22-5.64l-3.33-4.37-5.69 4.33zM97.94 334.12l3.71 3.5-9.56 25.82-4.21-4 2.2-5.68-7.73-7.3-5.54 2.54-4.1-3.87zM92 348.88l3.17-8.22-8 3.63zM103.16 356.17v-.06a12.78 12.78 0 0 1 18.18-3.27 13 13 0 0 1 6 8.82l-5.2 1.34a9.29 9.29 0 0 0-3.69-6c-3.49-2.41-8-1.24-10.45 2.31v.06c-2.45 3.55-2 8.2 1.52 10.65 2.37 1.63 4.47 1.68 7.12 1.33l.88 4.93a12.86 12.86 0 0 1-11-2.15 12.7 12.7 0 0 1-3.36-17.96zM136.15 368l-6.87-3.37 2.25-4.58 18.71 9.17-2.24 4.55-6.87-3.37-8.83 18-5-2.44zM148.34 382.25v-.07a13 13 0 0 1 16.66-8.46c7.42 2.3 11 9.47 8.91 16.31v.07a13 13 0 0 1-16.66 8.46c-7.42-2.3-11.03-9.48-8.91-16.31zm20 6.2v-.07a7.64 7.64 0 0 0-4.94-9.81 7.52 7.52 0 0 0-9.53 5.25v.07a7.64 7.64 0 0 0 4.94 9.81 7.52 7.52 0 0 0 9.54-5.25zM183.06 379l11.41 1.46c3.17.41 5.52 1.61 6.95 3.46a7.9 7.9 0 0 1 1.41 6v.07a7.81 7.81 0 0 1-6.33 7.05l5 9.69-6.42-.82-4.33-8.67-4.31-.55-1 8-5.49-.7zm9.5 13.53c2.67.34 4.39-.89 4.66-3v-.07c.3-2.35-1.18-3.77-3.86-4.12l-5.45-.7-.92 7.16zM207.65 403.29l3.17-4a11.53 11.53 0 0 0 7.59 2.86c2.26-.06 3.61-1 3.57-2.46v-.07c0-1.4-.92-2.1-5.15-3.07-5.1-1.16-8.4-2.48-8.53-7.47V389c-.12-4.56 3.47-7.67 8.61-7.81a14.56 14.56 0 0 1 9.42 3l-2.77 4.24a11.81 11.81 0 0 0-6.6-2.31c-2.12.05-3.21 1.05-3.18 2.28v.07c0 1.65 1.13 2.16 5.51 3.16 5.14 1.2 8.06 3 8.17 7.34v.03c.13 5-3.61 7.89-9 8a16 16 0 0 1-10.81-3.71zM246.83 378.24l5-1.07 15.83 22.51-5.66 1.21-3.43-5-10.4 2.22-1.07 6-5.52 1.18zm8.79 13.26l-5-7.27-1.56 8.67zM271.57 394.47l1.67-4.82a11.54 11.54 0 0 0 8.11.19c2.12-.8 3.08-2.13 2.55-3.51v-.07c-.5-1.31-1.56-1.68-5.87-1.19-5.2.59-8.75.44-10.52-4.23v-.07c-1.62-4.27.74-8.39 5.54-10.21a14.56 14.56 0 0 1 9.87-.32l-1.21 4.92a11.8 11.8 0 0 0-7 0c-2 .75-2.68 2.05-2.25 3.2v.07c.59 1.54 1.79 1.67 6.25 1.17 5.24-.57 8.58.13 10.14 4.23v.07c1.77 4.67-.8 8.64-5.87 10.57a16 16 0 0 1-11.41 0zM294.54 385.45l1-5a11.54 11.54 0 0 0 8.06-.87c2-1.07 2.77-2.51 2.07-3.81v-.06c-.67-1.23-1.76-1.46-6-.41-5.07 1.27-8.62 1.58-11-2.82v-.06c-2.17-4-.37-8.41 4.15-10.85a14.56 14.56 0 0 1 9.74-1.62l-.55 5a11.81 11.81 0 0 0-6.93.92c-1.87 1-2.39 2.39-1.81 3.46v.06c.78 1.46 2 1.42 6.34.34 5.12-1.25 8.52-1 10.6 2.86v.06c2.37 4.4.35 8.67-4.43 11.25a16 16 0 0 1-11.24 1.55zM313 365.25v-.06a13 13 0 0 1 2.7-18.48c6.15-4.73 14.1-3.54 18.45 2.13v.06a13 13 0 0 1-2.7 18.48c-6.14 4.73-14.08 3.54-18.45-2.13zm16.61-12.77v-.06a7.64 7.64 0 0 0-10.86-1.62 7.52 7.52 0 0 0-1.21 10.81v.06a7.64 7.64 0 0 0 10.86 1.63 7.52 7.52 0 0 0 1.22-10.81zM339 344.38h-.05a12.79 12.79 0 0 1-.72-18.46 13 13 0 0 1 9.57-4.68l.61 5.34a9.29 9.29 0 0 0-6.44 2.82c-2.87 3.12-2.34 7.76.84 10.67h.05c3.18 2.92 7.84 3.15 10.76 0 1.94-2.12 2.29-4.2 2.3-6.87l5-.19a12.86 12.86 0 0 1-3.66 10.64 12.7 12.7 0 0 1-18.26.73zM346.89 316.08l3.29-4.45 20.22 15-3.29 4.37zM357.42 300.26l2.56-4.42 27.33 3.35-2.9 5-6-.83-5.41 9.21 3.73 4.82-2.83 4.88zm15.73 2.37l-8.73-1.19 5.39 7zM372.15 283.14l-2.93 7.07-4.71-2 8-19.25 4.71 2-2.95 7.04 18.52 7.69-2.12 5.11zM373 266.53l1.63-5.29 24 7.42-1.63 5.29zM388.68 259.66h-.07a13 13 0 0 1-10.44-15.49c1.37-7.64 8-12.1 15.09-10.84h.07a13 13 0 0 1 10.44 15.49c-1.38 7.64-8.05 12.11-15.09 10.84zm3.7-20.62h-.07a7.64 7.64 0 0 0-9.12 6.11 7.52 7.52 0 0 0 6.38 8.81h.07a7.64 7.64 0 0 0 9.13-6.1 7.52 7.52 0 0 0-6.4-8.86zM381.13 225.31v-5.1l15.57-11.69-15.49-.1v-5.46l25.16.16v4.71l-16.07 12.08 16 .1v5.46z"/></g><path class="d" d="M184.38 89.66c-2.55 2.08-3 6.25-4.43 9.48a21 21 0 0 0 2.63 3.42c1.51.55 3.07.17 4.62.41 5.8.86 10.94 3.61 15.51 6 2.13 1.13 4 2 5.24 3.83-.06 2.36-.52 5.05.4 6.85 6.07 1.48 10.94 2.93 17.33 4 1.93 1 5.13 1.59 7 2 .6 0 .7.38 1 .6a15.32 15.32 0 0 1 3.42.61c.15.05.47.35 1 .59 1.33.63 3.78 1.31 5 1.82.51.2 1 .7 1.42.81s.86-.35 1.2-.21.47.75.61.82c.78.38 1.81.23 2.62.59.38.17.81.61 1.21.81 1.7.87 3.39 1.83 5.23 2.82.85.46 1.62.8 2.63 1.42 1.32.79 3.41 1.54 5 2.61 6 1.15 11.35 3 17.11 4.43a4.92 4.92 0 0 0 2-.2 6.29 6.29 0 0 0 4.22.81c2.27 1.62 2.73 5.06 4.24 7.46 3 .3 4.47 2.1 7.85 2a20.94 20.94 0 0 1 2.81 3.23c1.06 5-.15 9.25.21 13.89-.72 2-2.19 3.32-3.22 5 2.76-1.47 5.64-3.08 9.26-1.2-.48 3.35-1.07 6-3 8.25a15.19 15.19 0 0 0 .4 4.63 44.77 44.77 0 0 1 4.64 3.23c-.32 2.23-1.21 3.9-1.22 6.44a37.27 37.27 0 0 0-3.42 4.43c-3.11 1.26-6.3 2.43-8.06 5 .66 2.45-.2 4.62-.81 6.45-.83.25-1.14 1-2.41.8-.86 2.3-3 6.64-1.81 9.66a4.39 4.39 0 0 0 2.82 2.22c2.95 0 2.86-4.93 6.85-4.43 2.42-4.16 3.64-9.51 7-12.69 4.08 1.3 4.31-4.24 8.26-1.82 1.26-1.21-.4-2.6-.4-3.83 4-4.24 5.27-11.25 9.27-15.5 5.85 0 3.81-8.72 9.87-7.86-.69 2.91-2.61 5.19-1.82 9.47-1 3.77-5.63 4.37-7.24 7.66s-.17 8.09-2.42 11.47a15 15 0 0 1-2.42 1.42c-.76 2.75-1.85 4.9-1.81 7.65-3.52 5.93-8.42 13.7-6.65 22.36-.54 4.36-2.68 7.13-4 10.68-2.79 1.74-3.71 4.78-3.44 8.06.12 1.25 1 2.38 1.22 3.62.18 1 0 2.25.2 3.42.5 3.34.38 3.51-1.21 6.44-.33.61-.44 1.2-.81 1.81s-1 1-1.2 1.42 0 .89-.21 1.2c-.35.49-1.1.73-1.41 1.2-1.18 1.89-.51 4.28-.81 7.05-.34 3.26-2.27 6.06-4 8.26-.14 9.06-.11 16.87 1.41 25 1.36 2.6 2.94 5.12 2.82 8.25-.06 1.43-.88 2.69-1.42 4.24-.75 2.15-1.89 4.7-1.41 8 .16 1.11.9 1.43.6 2.83-38.43.93-78.6.13-117.81.4-.31-3.9-2.49-7.55-4.63-10.27a24.75 24.75 0 0 1-9.07-2.62c-3.09-3.4-3-8.89-6.44-12.09 1-3.19.12-6.52.61-9.86.46-3.14 2-6.22 2.61-8.86-.3-2.8-.06-4.9-.6-7.45-1.57-2.65-3.46-5-5-7.65 1.09-4.11.31-9.82.61-13.9-1.18-1.54-1.16-5.21-2-7.45-.94-2.45-4-4.42-6.24-6-2.57-1.84-5.19-3.22-7.45-4.63-5.4-3.36-8.44-8-12.49-11.68-.4-1.27-1.27-2.09-1.61-3.42-2.38-3.49-6.81-6.31-10.88-8.86a57.14 57.14 0 0 0-8.85-4.23 40.61 40.61 0 0 0-5.45-4.42c-2.58-3.39-5.11-6.26-7.25-9.67.8-2.15 1.63-4.09 2.62-6.45.78-4.52.56-9.07 2.62-12.48a20.24 20.24 0 0 1-.8-9.07c.43-2.29 3.12-5.24 4.23-7.05a3.55 3.55 0 0 1 .4-2.81c-.11-1.42-1-2.12-.8-3.83-1.45-1.34-2.39-3.34-4.43-4-1.87-.63-4.34-.31-5.63-2.22.14-3.42-.75-7.87 1.81-8.86a8.62 8.62 0 0 1 2.83.2c.84-.49 1.24-1.44 2.41-1.62.72-2.23 1.17-4.74 1.82-7 4-2.77 8.31-5.25 12.28-8.06 1.57.65 2.8-.66 4.23-.81-.49-2 .4-3.48.61-5.43s-.27-3.81 0-5.44c.08-.51.53-1.08.6-1.61.2-1.62-.13-3.35 0-5 .11-1.37.71-2.69.81-4 .25-3.37-.34-7.1.4-10.07.5-2 3.32-3.46 4.84-5 .88-.93 1.2-2 2.22-2.63 2.88-.25 4.62 3.26 7.65 3.64 4.81.6 8.66-.91 13.09-.81.66-.55.87-1.54 1.41-2.21a29.22 29.22 0 0 0 5.85-2.62 42.07 42.07 0 0 1 7.24-3.82 17.73 17.73 0 0 1 1.82-.81c1.37-.24 2.94.48 4.43.2 1-.2 1.79-1.4 3-1.82a15.31 15.31 0 0 1 5.63-.8c.47.07.06.38.6.61s.93 0 1.22.2c.88.61.99 1.93 1.86 2.95z"/><circle class="b" cx="37.02" cy="182.29" r="5.56"/><circle class="b" cx="389.35" cy="182.29" r="5.56"/><g><path class="c" d="M144.42 427.42l4 1.09.37 12.34 6.9-10.41 3.17.87.64 12.47 6.6-10.44 3.87 1.06-10.38 15.37-3.22-.88-.79-12-6.81 10-3.22-.88zM172.05 434.43l3.77.71-3.24 17.13-3.77-.71zM174.89 450.2l2.62-2.37a8 8 0 0 0 4.86 2.82c1.55.22 2.58-.27 2.72-1.28.14-1-.39-1.54-3.17-2.68-3.35-1.38-5.46-2.65-5-6.08.44-3.13 3.25-4.85 6.78-4.36a10.1 10.1 0 0 1 6.11 3.1l-2.38 2.58a8.19 8.19 0 0 0-4.25-2.33c-1.46-.2-2.31.35-2.43 1.19-.16 1.13.53 1.61 3.41 2.79 3.38 1.4 5.17 2.94 4.75 6-.48 3.43-3.37 5-7.09 4.46a11.1 11.1 0 0 1-6.93-3.84zM191.46 446.3a8.86 8.86 0 0 1 9.66-8.4 9 9 0 0 1 6.68 3.14l-2.62 2.65a6.43 6.43 0 0 0-4.32-2.26 5.17 5.17 0 0 0-5.4 5.09 5.18 5.18 0 0 0 4.69 5.8 6.3 6.3 0 0 0 4.71-1.74l2.27 2.62a8.91 8.91 0 0 1-7.34 2.64 8.8 8.8 0 0 1-8.33-9.54zM209.22 447.44a9.28 9.28 0 0 1 18.54-.39 9.28 9.28 0 0 1-18.54.39zm14.53-.27a5.3 5.3 0 0 0-5.38-5.38 5.22 5.22 0 0 0-5.13 5.53 5.3 5.3 0 0 0 5.38 5.38 5.22 5.22 0 0 0 5.13-5.52zM230.39 438.09l3.52-.39 9.29 9.78-1.2-10.66 3.76-.41 1.9 17.33-3.24.36-9.6-10.1 1.21 11-3.76.41zM250.5 450.73l1.72-3.09a8 8 0 0 0 5.51 1.11c1.54-.29 2.36-1.08 2.17-2.08-.18-1-.86-1.33-3.86-1.53-3.62-.23-6-.76-6.67-4.17-.59-3.11 1.52-5.64 5-6.3a10.1 10.1 0 0 1 6.78 1l-1.42 3.21a8.18 8.18 0 0 0-4.77-.85c-1.44.27-2.08 1.08-1.92 1.91.21 1.13 1 1.35 4.12 1.55 3.65.25 5.84 1.13 6.4 4.11.64 3.4-1.59 5.8-5.29 6.5a11.1 11.1 0 0 1-7.77-1.37zM262.76 433.11l3.73-.89 4 17-3.73.89zM269.15 431.67l3.39-1 10.91 7.94-3.08-10.29 3.63-1.09 5 16.71-3.13.94-11.28-8.19 3.18 10.62-3.63 1.09z"/></g><g><path class="c" d="M172.85 179.24v1.92a6.46 6.46 0 0 0-3.27 1.09 7.94 7.94 0 0 0-2.34 2.86q-.31.62-3.22 8l-21.68 58.13h-2l-17.14-45.4-18.87 45.4h-1.89l-22.75-57.5q-3.47-8.67-4.85-10.49t-4.64-2.13v-1.92h30v1.92q-3.62.1-4.82 1.12a3.16 3.16 0 0 0-1.2 2.52q0 2 2.5 8.36l13.57 34.18 10.86-26.7-2.86-7.48a56.65 56.65 0 0 0-3.63-8.18 8 8 0 0 0-2.93-2.94 10.61 10.61 0 0 0-4.87-.88v-1.92h33.51v1.92a18.2 18.2 0 0 0-5.05.57 3.29 3.29 0 0 0-1.68 1.22 3.23 3.23 0 0 0-.61 1.95q0 1.19 2.29 7.32l12.6 33.35 11.27-30.18a61.93 61.93 0 0 0 2.19-6.39 13.65 13.65 0 0 0 .41-3.17 4.18 4.18 0 0 0-1.43-3.35q-1.43-1.22-5.46-1.32v-1.92z"/><path class="c" d="M190.48 217.78v19.53q0 5.72.69 7.19a5.07 5.07 0 0 0 2.45 2.37q1.76.88 6.45.88v1.92h-35.15v-1.92q4.8 0 6.51-.91a5.25 5.25 0 0 0 2.4-2.36q.69-1.45.69-7.17V191.6q0-5.71-.69-7.19a5.08 5.08 0 0 0-2.43-2.41c-1.16-.59-3.31-.88-6.48-.88v-1.92h30.15q14.89 0 21.37 5.4a16.88 16.88 0 0 1 6.48 13.5 17.46 17.46 0 0 1-4.18 11.74 21.18 21.18 0 0 1-11.53 6.65q-4.94 1.29-16.73 1.29zm0-34.49v30.44q1.69.1 2.55.1 6.22 0 9.59-3.77t3.38-11.65q0-7.84-3.36-11.48t-10-3.64zM290.59 177.63V202h-2q-2.24-9.56-8.36-14.65a21.11 21.11 0 0 0-13.87-5.09 20.25 20.25 0 0 0-11.89 3.79 22 22 0 0 0-7.9 9.92 45.62 45.62 0 0 0-3.22 17.45 59.28 59.28 0 0 0 2.35 17.22q2.34 7.77 7.34 11.74t13 4a25 25 0 0 0 12-2.91q5.43-2.91 11.45-10v6.08a37.69 37.69 0 0 1-12.12 9 36.18 36.18 0 0 1-14.71 2.78 41.63 41.63 0 0 1-19.66-4.52 31.61 31.61 0 0 1-13.26-13 36.76 36.76 0 0 1-4.67-18 37.9 37.9 0 0 1 5.18-19.12 36.84 36.84 0 0 1 14-14 37.33 37.33 0 0 1 18.7-5 41.75 41.75 0 0 1 15.4 3.22c3.13 1.24 5.12 1.87 6 1.87a3.84 3.84 0 0 0 2.65-1.28 6.67 6.67 0 0 0 1.55-3.87zM328.27 229.63h-24.44l-2.91 6.86a15.49 15.49 0 0 0-1.42 5.66 4.71 4.71 0 0 0 2.35 4.36q1.37.83 6.78 1.25v1.92h-23v-1.92a10.2 10.2 0 0 0 6.12-3.14q2.4-2.57 5.92-10.62l24.74-56.2h1l24.95 57.76q3.57 8.21 5.86 10.34a7.92 7.92 0 0 0 4.9 1.87v1.92h-33.5v-1.92H327c2.68 0 4.57-.38 5.66-1.14a2.79 2.79 0 0 0 1.12-2.39 6.38 6.38 0 0 0-.31-1.92c-.06-.31-.58-1.61-1.53-3.9zm-1.73-3.84l-10.3-24.26-10.61 24.26z"/></g></svg>