<svg id="Layer_1" xmlns="http://www.w3.org/2000/svg" viewBox="0 0 424.5 262"><style>.st0{fill:#231f20}.st1{fill:#fff}.st2{fill:none;stroke:#0059a9;stroke-width:3;stroke-miterlimit:10}.st3{fill:#0059a9}.st4{fill:#015aa8}</style><title>Artboard 1</title><path class="st0" d="M17.7 201.8h7.5c4.3 0 8.3 1.5 8.3 6.5 0 5.6-4.2 6.6-9 6.6h-2.8v9.3h-4v-22.4zm6.4 9.7c2.3 0 5.2-.1 5.2-3.2 0-2.8-2.6-3.1-4.8-3.1h-2.9v6.3h2.5zm16.9-9.7h3.5l9.6 22.4h-4.6l-2.1-5.1h-9.7l-2 5.1h-4.5l9.8-22.4zm5 13.9l-3.5-9.1-3.5 9.1h7zm10.5-13.9h4v22.4h-4v-22.4zm8.9 0h5.3l10.9 16.6.1.1h-.1l.1-.1v-16.6h4v22.4h-5.1L69.4 207h-.1v17.2h-4l.1-22.4zm29.7 3.6h-6.9v-3.6H106v3.6h-6.9v18.8h-4v-18.8zm13.5-3.6h4v22.4h-4v-22.4zm8.9 0h5.3l10.8 16.6.1.1h-.1l.1-.1v-16.6h4v22.4h-5.1l-11-17.2h-.1v17.2h-4v-22.4zm45.1 20.8c-2.9 1.5-6 2.3-9.3 2.2-6.9 0-11.8-4.7-11.8-11.7 0-7.2 4.9-11.9 11.8-11.9 3.4 0 6.5.7 8.8 2.8l-2.9 3c-1.6-1.4-3.7-2.2-5.9-2.2-4.6 0-7.7 3.5-7.7 8 0 4.8 3.1 8.3 7.7 8.3 1.8.1 3.6-.3 5.2-1.2v-5.3H154V211h8.6v11.6zm29.4-15.5c-1.2-1.4-2.9-2.2-4.7-2.2-4.6 0-7.7 3.5-7.7 8 0 4.8 3.1 8.3 7.7 8.3 2-.1 3.9-1.1 5-2.7l3.3 2.3c-2 2.6-5.1 4.1-8.4 4-6.9 0-11.8-4.7-11.8-11.7 0-7.2 4.9-11.9 11.8-11.9 3-.1 5.9 1.2 7.8 3.5l-3 2.4zm16-5.9c7-.1 11.9 4.6 11.9 11.7 0 7-4.9 11.7-11.9 11.8s-11.8-4.7-11.8-11.7c-.1-7.1 4.9-11.8 11.8-11.8zm0 20c4.6 0 7.7-3.5 7.7-8.3 0-4.5-3.1-8-7.7-8s-7.7 3.5-7.7 8c0 4.7 3.1 8.3 7.7 8.3zm14.7-19.4h5.3l10.8 16.6.1.1h-.1l.1-.1v-16.6h4v22.4h-5.1l-11-17.2h-.1v17.2h-4v-22.4zm29.8 3.6h-6.9v-3.6h17.7v3.6h-6.9v18.8h-4l.1-18.8zm13.9-3.6h7.8c4.3 0 8.4 1.4 8.4 6.4.2 3.1-2.1 5.8-5.2 6.1l6 9.9h-4.8l-5.2-9.5h-2.9v9.5h-4l-.1-22.4zm7 9.5c2.2 0 4.9-.2 4.9-3.1 0-2.7-2.5-3-4.5-3h-3.5v6.1h3.1zm20.8-9.5h3.5l9.6 22.4h-4.5l-2.1-5.1H291l-2 5.1h-4.5l9.7-22.4zm5.1 13.9l-3.5-9.1-3.5 9.1h7zm23.5-8.6c-1.2-1.4-2.9-2.2-4.7-2.2-4.6 0-7.7 3.5-7.7 8 0 4.8 3.1 8.3 7.7 8.3 2-.1 3.9-1.1 5-2.7l3.3 2.3c-2 2.6-5.1 4.1-8.4 4-6.9 0-11.8-4.7-11.8-11.7 0-7.2 4.9-11.9 11.8-11.9 3-.1 5.9 1.2 7.8 3.5l-3 2.4zm10.9-1.7h-6.9v-3.6h17.7v3.6h-6.9v18.8h-4l.1-18.8zm22.2-4.2c7-.1 11.9 4.6 11.9 11.7 0 7-4.9 11.7-11.9 11.8s-11.8-4.7-11.8-11.7c0-7.1 4.9-11.8 11.8-11.8zm0 20c4.6 0 7.7-3.5 7.7-8.3 0-4.5-3.1-8-7.7-8s-7.7 3.5-7.7 8c.1 4.7 3.1 8.3 7.7 8.3zm14.4-19.4h7.8c4.3 0 8.4 1.4 8.4 6.4.2 3.1-2.1 5.8-5.2 6.1l6 9.9h-4.8l-5.2-9.5h-2.9v9.5h-4l-.1-22.4zm7.1 9.5c2.2 0 4.9-.2 4.9-3.1 0-2.7-2.5-3-4.5-3h-3.5v6.1h3.1zm23.8-4.7c-.9-1.2-2.4-1.8-3.9-1.8-1.8 0-3.7.8-3.7 2.9 0 4.5 10.6 1.9 10.6 9.9 0 4.8-3.8 7.1-8.2 7.1-2.8.1-5.5-1-7.3-3l3-2.9c1 1.5 2.7 2.4 4.4 2.3 1.8 0 3.9-1 3.9-3.1 0-4.9-10.6-2.1-10.6-10.1 0-4.6 4.1-6.8 8.3-6.8 2.4-.1 4.7.7 6.4 2.3l-2.9 3.2z"/><ellipse class="st1" cx="212" cy="92" rx="209.5" ry="89"/><ellipse class="st2" cx="211.8" cy="92.2" rx="209.3" ry="89"/><ellipse class="st3" cx="211.8" cy="91.9" rx="204.7" ry="84.7"/><path class="st1" d="M117.5 68.9h-11l-19.8 51h10.8l4.2-11.5h20l4.8 11.5h11.2l-20.2-51zm-12.2 30.5l7-18.2 7 18.2h-14zm47.7 20.7h-10V68.6h10.2l20.2 33.2v-33h10V120h-11L153 87.9v32.2zm92-51.2v51.5h10.2v-23H275v22.5h10.5V68.7h-10v20h-20V68.9H245zm88.8 9.2v-9.5H296v51.5h38.5v-9h-28.2v-14h25.5v-8.5h-25.5V78.1h27.5zm8-9.7H379v8.8L352 111h28.2v9h-41.8v-9.2l26.2-33h-23v-9.4h.2zM226.2 85.9l10.2-3s-4.8-15.2-20.2-15.2c0 0-24-1.2-24 27.8 0 0 0 25.5 22.8 25.5 0 0 16.5 2 21.8-16.5l-10.2-3.8s-2 11-11.8 11c0 0-12 0-11.5-17.2 0 0-1.5-17.5 12.2-17.5 0-.1 8.5.6 10.7 8.9zM71.5 83.6h10.2s-.2-15.8-19-15.8c0 0-17.5-.2-19 14.2 0 0-.8 11 12.8 14.5 0 0 9 2.3 13.8 3.5 0 0 3.2.8 3 4.8 0 0 .5 3.5-4.2 5.8 0 0-13.3 5.5-16.8-8.5l-9.8 1s.2 15.8 17.8 17.8h2.5s18.5 1.6 20.6-15.6l.1-3.4s0-8-9.8-11.5c0 0-9-2.5-14.3-4 0 0-5.5-1.2-5.5-5.2 0 0 .1-4.6 9.4-4.4.1 0 7.7.3 8.2 6.8z"/><path class="st4" d="M69.3 249.5l-4.8-10.9h2.6l3.7 8.8 6.9-8.8h2.8l-8.8 10.9-1.6 7.3h-2.4l1.6-7.3zm15.9-6.1c3.5 0 5.5 1.9 5.5 5.5 0 4.3-2.7 8.4-7.3 8.4-2.9.2-5.4-2-5.6-4.9v-.7c0-4.4 2.8-8.3 7.4-8.3zm-1.6 11.9c3.2 0 4.9-3.6 4.9-6.3 0-2.1-1.1-3.7-3.5-3.7-3.3 0-5.1 3.6-5.1 6.4-.1 1.8 1.2 3.4 3.1 3.6h.6zm19.6 1.6h-2.1l.4-2h-.1c-1.1 1.5-2.9 2.3-4.7 2.3-2.5 0-3.7-1.1-3.7-3.4 0-.9.2-1.7.4-2.6l1.6-7.5h2.2l-1.7 7.8c-.1.7-.3 1.3-.3 2 0 1.2 1 1.8 2.3 1.8 2.4 0 4.3-2.1 4.7-4.3l1.5-7.3h2.2l-2.7 13.2zm6.9-13.2h2l-.6 2.8h.1c.9-1.9 2.8-3.1 4.8-3.1h.8l-.5 2.3h-.6c-.4 0-.9 0-1.3.1-1.2.3-2.2 1.1-2.8 2.1-.6 1-.9 2-1.1 3.1l-1.2 5.9h-2.2l2.6-13.2zm17.5-5.1h7.2c3.5 0 5.4 1.7 5.4 5 0 2.3-1.6 5.8-7 5.8h-5.4l-1.6 7.5h-2.4l3.8-18.3zm.6 8.8h5.5c2.6 0 4-1.5 4-3.7.2-1.5-.9-2.8-2.3-3h-5.8l-1.4 6.7zm14.9-3.7h2l-.6 2.8h.1c.9-1.9 2.7-3.1 4.8-3.1h.8l-.5 2.3h-.6c-.4 0-.9 0-1.3.1-1.2.3-2.2 1.1-2.8 2.1s-.9 2-1.1 3.1l-1.2 5.8h-2.2l2.6-13.1zm14.4-.3c3.5 0 5.5 1.9 5.5 5.5 0 4.3-2.7 8.4-7.3 8.4-2.9.2-5.4-2-5.6-4.9v-.7c0-4.4 2.7-8.3 7.4-8.3zm-1.6 11.9c3.2 0 4.9-3.6 4.9-6.3 0-2.1-1.1-3.7-3.5-3.7-3.3 0-5.1 3.6-5.1 6.4-.1 1.8 1.2 3.4 3.1 3.6h.6zm6.3 4.6c.3.1.6.1.8.1.9 0 1.2-.6 1.6-2.5l2.9-13.9h2.2l-3.3 15.8c-.2 1.5-1.6 2.7-3.1 2.6-.5 0-1 0-1.4-.1l.3-2zm8-18.6H168l.6-2.7h2.2l-.6 2.7zm3.4 9.6c-.1.4-.1.8-.1 1.1 0 1.8 1.5 3.2 3.2 3.2h.2c1.7.1 3.3-.9 3.8-2.5h2.2c-.6 2.8-3.2 4.6-6 4.5-4.4 0-5.6-3-5.6-5.3 0-5.1 3.2-8.5 6.8-8.5 3.9 0 5.6 2.1 5.6 5.9 0 .6-.1 1.1-.2 1.7l-9.9-.1zm8-1.9c.1-1.9-.7-3.7-3.1-3.7-2.6 0-3.9 1.7-4.6 3.7h7.7zm14.6-1.1c.1-1.4-1-2.5-2.4-2.6h-.4c-3.4 0-5.1 3.3-5.1 6.2 0 2 .8 3.8 3.3 3.8 1.7 0 3.3-1.1 3.9-2.7h2.2c-.6 2.8-3.1 4.8-6 4.6-3.6 0-5.4-2.1-5.4-5.7 0-4.2 2.6-8.1 7.3-8.1 3 0 4.9 1.4 5 4.5h-2.4zm9.2-4.2h2.6l-.4 1.9H205l-1.6 7.8c0 .3-.1.6-.1.9 0 .7.6.9 1.3.9.4 0 .8-.1 1.2-.2l-.4 2c-.5.1-1 .2-1.5.1-1.6 0-3-.5-3-2.1 0-.4.1-.7.1-1.1l1.7-8.2h-2.2l.4-1.9h2.2l.8-3.9h2.2l-.7 3.8zm21-5.5c4.7 0 7.6 3.5 7.6 8.1 0 5.7-3.7 11-9.8 11-5 0-7.8-3-7.8-8 0-5.9 3.7-11.1 10-11.1zm-2.2 17.1c4.8 0 7.4-4.6 7.4-9 0-3.4-1.8-6-5.2-6-5.1 0-7.6 4.7-7.6 9.1 0 3.4 1.7 5.9 5.4 5.9zm21.9 1.6H244l.4-2h-.1c-1.1 1.5-2.9 2.3-4.7 2.3-2.5 0-3.7-1.1-3.7-3.4 0-.9.2-1.7.4-2.6l1.6-7.5h2.2l-1.6 7.8c-.1.7-.3 1.3-.3 2 0 1.2 1 1.8 2.3 1.8 2.4 0 4.3-2.1 4.7-4.3l1.5-7.3h2.2l-2.8 13.2zm7-13.2h2l-.6 2.8h.1c.9-1.9 2.7-3.1 4.8-3.1h.8l-.5 2.3h-.6c-.4 0-.9 0-1.3.1-1.2.3-2.2 1.1-2.8 2.1s-.9 2-1.1 3.1l-1.2 5.8h-2.1l2.5-13.1zm17.4-5.1h7.2c3.5 0 5.4 1.7 5.4 5 0 2.3-1.6 5.8-7 5.8h-5.4l-1.6 7.5h-2.4l3.8-18.3zm.7 8.8h5.5c2.6 0 4-1.5 4-3.7.2-1.5-.9-2.8-2.3-3h-5.8l-1.4 6.7zm13.7.3c.4-2.9 2.9-4.3 5.7-4.3 2.6 0 4.8.7 4.8 3.4-.1.8-.2 1.6-.4 2.4l-.8 3.6c-.2.6-.3 1.3-.4 1.9 0 .6.3.8.6.8.2 0 .5-.1.7-.2l-.3 1.6c-.4.2-.9.3-1.3.3-.8.1-1.6-.5-1.7-1.3v-.5c-1 1.4-2.7 2.1-4.4 1.9-2.2 0-4-1-4-3.7 0-3.8 3.8-4.1 6.7-4.3 2.3-.2 3.3-.3 3.3-2.1 0-1.4-1.5-1.7-2.7-1.7-1.7 0-3.3.7-3.5 2.4l-2.3-.2zm2.9 7.6c1.5.1 2.9-.5 3.7-1.7.6-1 1-2.2 1.1-3.4-1.4.5-2.8.8-4.2.9-1.6.2-2.9.7-2.9 2.4-.1 1.2 1.1 1.8 2.3 1.8zm18.8-7.7c.1-1.5-1.2-2.3-2.7-2.3-1.3 0-2.8.4-2.8 1.7s1.7 1.7 3.5 2.4c1.7.7 3.5 1.6 3.5 3.7 0 2.9-2.8 4.1-5.4 4.1-3 0-5.4-1.1-5.3-4.5h2.2c-.1 2 1.6 2.6 3.4 2.6 1.4 0 3-.5 3-2 0-1.3-1.7-1.8-3.5-2.5-1.7-.7-3.5-1.6-3.5-3.6 0-2.5 2.5-3.8 4.9-3.8s5 1.1 5 4.2h-2.3zm13 0c.1-1.5-1.2-2.3-2.7-2.3-1.3 0-2.8.4-2.8 1.7s1.7 1.7 3.5 2.4c1.7.7 3.5 1.6 3.5 3.7 0 2.9-2.8 4.1-5.4 4.1-3 0-5.4-1.1-5.3-4.5h2.2c-.1 2 1.6 2.6 3.4 2.6 1.4 0 3-.5 3-2 0-1.3-1.7-1.8-3.5-2.5-1.7-.7-3.5-1.6-3.5-3.6 0-2.5 2.5-3.8 4.9-3.8s5 1.1 5 4.2h-2.3zm6.5-3.9h2.2l-2.8 13.2h-2.2l2.8-13.2zm2.7-2.4h-2.2l.6-2.7h2.2l-.6 2.7zm8.7 2.1c3.5 0 5.5 1.9 5.5 5.5 0 4.3-2.7 8.4-7.3 8.4-2.9.2-5.4-2-5.6-4.9v-.7c0-4.4 2.8-8.3 7.4-8.3zm-1.6 11.9c3.2 0 4.9-3.6 4.9-6.3 0-2.1-1.1-3.7-3.5-3.7-3.3 0-5.1 3.6-5.1 6.4-.1 1.8 1.2 3.4 3.1 3.6h.6zm11.7-11.6h2.1l-.4 2c1.1-1.4 2.8-2.3 4.7-2.3 2.5 0 3.7 1.1 3.7 3.4 0 .9-.2 1.7-.4 2.6l-1.6 7.5h-2.2l1.7-7.7c.1-.7.3-1.3.3-2 0-1.2-1-1.8-2.3-1.8-1.2 0-2.4.6-3.2 1.4-.7.8-1.3 1.7-1.5 2.8l-1.5 7.3h-2.2l2.8-13.2z"/></svg>